<svg xmlns="http://www.w3.org/2000/svg" viewBox="0 0 1600 1000">
  <defs><linearGradient id="g" x1="0" y1="0" x2="1" y2="1"><stop stop-color="#ff7048"/><stop offset="1" stop-color="#ff3d25"/></linearGradient><filter id="s"><feDropShadow dx="0" dy="30" stdDeviation="30" flood-opacity=".18"/></filter></defs>
  <rect width="1600" height="1000" fill="#f4f0ea"/><rect x="24" y="22" width="1552" height="956" rx="24" fill="#fff" stroke="#d8d2ca"/>
  <g font-family="Arial,sans-serif" fill="#181614"><text x="72" y="84" font-size="24" font-weight="700">relay°</text><text x="665" y="83" font-size="15">Product</text><text x="754" y="83" font-size="15">Solutions</text><text x="850" y="83" font-size="15">Company</text><rect x="1365" y="51" width="154" height="48" rx="24" fill="#181614"/><text x="1401" y="82" fill="white" font-size="14">Start building →</text></g>
  <path d="M25 123h1550" stroke="#dfdbd4"/>
  <text x="72" y="262" font-family="Arial,sans-serif" font-size="106" font-weight="600" letter-spacing="-6" fill="#191715">Move work forward.</text>
  <text x="74" y="313" font-family="Arial,sans-serif" font-size="22" fill="#655f58">The operating system for modern product teams.</text>
  <rect x="73" y="352" width="167" height="54" rx="27" fill="#171513"/><text x="107" y="386" font-family="Arial,sans-serif" font-size="16" fill="white">Start for free →</text>
  <rect x="260" y="352" width="154" height="54" rx="27" fill="white" stroke="#bbb5ae"/><text x="296" y="386" font-family="Arial,sans-serif" font-size="16" fill="#171513">See it work</text>
  <g filter="url(#s)"><rect x="580" y="350" width="940" height="538" rx="22" fill="#181716"/><rect x="605" y="377" width="890" height="486" rx="13" fill="#f8f5f0"/><rect x="626" y="399" width="196" height="442" rx="10" fill="#fff"/><text x="651" y="441" font-family="Arial" font-size="16" font-weight="700" fill="#222">Relay workspace</text><g fill="#87817b" font-family="Arial" font-size="14"><text x="652" y="492">⌁  Overview</text><text x="652" y="537">□  Projects</text><text x="652" y="582">◌  Activity</text><text x="652" y="627">◇  Analytics</text></g><rect x="846" y="399" width="625" height="164" rx="12" fill="url(#g)"/><text x="879" y="449" font-family="Arial" font-size="14" fill="white">THIS WEEK</text><text x="879" y="520" font-family="Arial" font-size="58" font-weight="700" fill="white">94.8%</text><rect x="846" y="586" width="298" height="255" rx="12" fill="white"/><rect x="1170" y="586" width="301" height="255" rx="12" fill="#242220"/><path d="M881 768c55-92 97-10 140-86 39-68 77-19 91-56" fill="none" stroke="#ff5032" stroke-width="8"/><circle cx="1112" cy="626" r="8" fill="#ff5032"/><text x="1200" y="630" font-family="Arial" font-size="14" fill="#aaa29b">DEPLOYMENTS</text><text x="1200" y="704" font-family="Arial" font-size="64" fill="white">128</text><text x="1200" y="754" font-family="Arial" font-size="14" fill="#aaa29b">+18% this month</text></g>
  <circle cx="1455" cy="233" r="90" fill="none" stroke="#ff5032" stroke-width="2"/><circle cx="1455" cy="233" r="58" fill="none" stroke="#ff5032" opacity=".35"/><path d="m1420 233 26 26 48-57" fill="none" stroke="#ff5032" stroke-width="9"/>
</svg>
